<?xml version="1.0" encoding="UTF-8" standalone="no"?><svg xmlns="http://www.w3.org/2000/svg" xmlns:xlink="http://www.w3.org/1999/xlink" contentScriptType="application/ecmascript" contentStyleType="text/css" height="469px" preserveAspectRatio="none" style="width:730px;height:469px;" version="1.1" viewBox="0 0 730 469" width="730px" zoomAndPan="magnify"><defs><filter height="300%" id="fky2j4qc211kb" width="300%" x="-1" y="-1"><feGaussianBlur result="blurOut" stdDeviation="2.0"/><feColorMatrix in="blurOut" result="blurOut2" type="matrix" values="0 0 0 0 0 0 0 0 0 0 0 0 0 0 0 0 0 0 .4 0"/><feOffset dx="4.0" dy="4.0" in="blurOut2" result="blurOut3"/><feBlend in="SourceGraphic" in2="blurOut3" mode="normal"/></filter></defs><g><!--MD5=[ca9e8be6af02eb0b27d792bbec3aa2a6]
cluster edu.kit.scc.dem.tuhl--><polygon fill="#FFFFFF" filter="url(#fky2j4qc211kb)" points="22,24,169,24,176,47.6094,708,47.6094,708,457,22,457,22,24" style="stroke: #000000; stroke-width: 1.5;"/><line style="stroke: #000000; stroke-width: 1.5;" x1="22" x2="176" y1="47.6094" y2="47.6094"/><text fill="#000000" font-family="sans-serif" font-size="14" font-weight="bold" lengthAdjust="spacingAndGlyphs" textLength="141" x="26" y="40.5332">edu.kit.scc.dem.tuhl</text><!--MD5=[a679b60fab6391e1bd9140660b36bae6]
cluster edu.kit.scc.dem.tuhl.assistance--><polygon fill="#FFFFFF" filter="url(#fky2j4qc211kb)" points="46,68,135,68,142,91.6094,684,91.6094,684,433,46,433,46,68" style="stroke: #000000; stroke-width: 1.5;"/><line style="stroke: #000000; stroke-width: 1.5;" x1="46" x2="142" y1="91.6094" y2="91.6094"/><text fill="#000000" font-family="sans-serif" font-size="14" font-weight="bold" lengthAdjust="spacingAndGlyphs" textLength="83" x="50" y="84.5332">assisstance</text><!--MD5=[f87320620276310c4f3c7f648104df83]
class edu.kit.scc.dem.tuhl.assistance.AssistanceController--><rect fill="#FEFECE" filter="url(#fky2j4qc211kb)" height="103.3438" id="edu.kit.scc.dem.tuhl.assistance.AssistanceController" style="stroke: #A80036; stroke-width: 1.5;" width="147" x="62.5" y="125"/><ellipse cx="77.5" cy="141" fill="#ADD1B2" rx="11" ry="11" style="stroke: #A80036; stroke-width: 1.0;"/><path d="M79.5,137.5 Q79.7031,137 79.9375,136.75 Q80.1719,136.5 80.4375,136.5 Q80.9063,136.5 81.2031,136.7813 Q81.5,137.0625 81.5,137.7188 L81.5,139.2813 Q81.5,139.9375 81.2188,140.2188 Q80.9375,140.5 80.5,140.5 Q80.1094,140.5 79.8594,140.3281 Q79.6094,140.1563 79.5,139.7031 Q79.4531,139.3906 79.2813,139.2188 Q78.9688,138.8906 78.4063,138.7031 Q77.8438,138.5 77.2813,138.5 Q76.5781,138.5 75.9844,138.7813 Q75.4063,139.0625 74.9531,139.6875 Q74.5,140.3125 74.5,141.1719 L74.5,142.0938 Q74.5,143.125 75.3438,143.8125 Q76.1875,144.5 77.6875,144.5 Q78.5781,144.5 79.2031,144.2969 Q79.5625,144.1875 79.9688,143.8281 Q80.2344,143.625 80.375,143.5625 Q80.5156,143.5 80.6875,143.5 Q81.0156,143.5 81.25,143.7656 Q81.5,144.0156 81.5,144.375 Q81.5,144.7188 81.1563,145.125 Q80.6563,145.7188 79.8594,146.0469 Q78.8125,146.5 77.5313,146.5 Q76.0313,146.5 74.8281,145.9063 Q73.8594,145.4375 73.1719,144.4219 Q72.5,143.4063 72.5,142.2031 L72.5,141.1094 Q72.5,139.8594 73.0938,138.7656 Q73.7031,137.6719 74.75,137.0938 Q75.8125,136.5 77,136.5 Q77.7188,136.5 78.3438,136.75 Q78.9688,137 79.5,137.5 Z "/><text fill="#000000" font-family="sans-serif" font-size="12" lengthAdjust="spacingAndGlyphs" textLength="115" x="91.5" y="145.9102">AssistanceController</text><line style="stroke: #A80036; stroke-width: 1.5;" x1="63.5" x2="208.5" y1="157" y2="157"/><line style="stroke: #A80036; stroke-width: 1.5;" x1="63.5" x2="208.5" y1="165" y2="165"/><ellipse cx="73.5" cy="176" fill="#84BE84" rx="3" ry="3" style="stroke: #038048; stroke-width: 1.0;"/><text fill="#000000" font-family="sans-serif" font-size="11" lengthAdjust="spacingAndGlyphs" textLength="109" x="82.5" y="180.4189">AssistanceController()</text><ellipse cx="73.5" cy="189.8359" fill="#84BE84" rx="3" ry="3" style="stroke: #038048; stroke-width: 1.0;"/><text fill="#000000" font-family="sans-serif" font-size="11" lengthAdjust="spacingAndGlyphs" textLength="28" x="82.5" y="194.2549">help()</text><ellipse cx="73.5" cy="203.6719" fill="#84BE84" rx="3" ry="3" style="stroke: #038048; stroke-width: 1.0;"/><text fill="#000000" font-family="sans-serif" font-size="11" lengthAdjust="spacingAndGlyphs" textLength="79" x="82.5" y="208.0908">setPseudonym()</text><ellipse cx="73.5" cy="217.5078" fill="#84BE84" rx="3" ry="3" style="stroke: #038048; stroke-width: 1.0;"/><text fill="#000000" font-family="sans-serif" font-size="11" lengthAdjust="spacingAndGlyphs" textLength="56" x="82.5" y="221.9268">setSetting()</text><!--MD5=[98176d2f0691b2170461e16d00438109]
class edu.kit.scc.dem.tuhl.assistance.AssistanceService--><rect fill="#FEFECE" filter="url(#fky2j4qc211kb)" height="103.3438" id="edu.kit.scc.dem.tuhl.assistance.AssistanceService" style="stroke: #A80036; stroke-width: 1.5;" width="141" x="356.5" y="125"/><ellipse cx="375.1" cy="141" fill="#ADD1B2" rx="11" ry="11" style="stroke: #A80036; stroke-width: 1.0;"/><path d="M377.1,137.5 Q377.3031,137 377.5375,136.75 Q377.7719,136.5 378.0375,136.5 Q378.5063,136.5 378.8031,136.7813 Q379.1,137.0625 379.1,137.7188 L379.1,139.2813 Q379.1,139.9375 378.8188,140.2188 Q378.5375,140.5 378.1,140.5 Q377.7094,140.5 377.4594,140.3281 Q377.2094,140.1563 377.1,139.7031 Q377.0531,139.3906 376.8813,139.2188 Q376.5688,138.8906 376.0063,138.7031 Q375.4438,138.5 374.8813,138.5 Q374.1781,138.5 373.5844,138.7813 Q373.0063,139.0625 372.5531,139.6875 Q372.1,140.3125 372.1,141.1719 L372.1,142.0938 Q372.1,143.125 372.9438,143.8125 Q373.7875,144.5 375.2875,144.5 Q376.1781,144.5 376.8031,144.2969 Q377.1625,144.1875 377.5688,143.8281 Q377.8344,143.625 377.975,143.5625 Q378.1156,143.5 378.2875,143.5 Q378.6156,143.5 378.85,143.7656 Q379.1,144.0156 379.1,144.375 Q379.1,144.7188 378.7563,145.125 Q378.2563,145.7188 377.4594,146.0469 Q376.4125,146.5 375.1313,146.5 Q373.6313,146.5 372.4281,145.9063 Q371.4594,145.4375 370.7719,144.4219 Q370.1,143.4063 370.1,142.2031 L370.1,141.1094 Q370.1,139.8594 370.6938,138.7656 Q371.3031,137.6719 372.35,137.0938 Q373.4125,136.5 374.6,136.5 Q375.3188,136.5 375.9438,136.75 Q376.5688,137 377.1,137.5 Z "/><text fill="#000000" font-family="sans-serif" font-size="12" lengthAdjust="spacingAndGlyphs" textLength="101" x="389.9" y="145.9102">AssistanceService</text><line style="stroke: #A80036; stroke-width: 1.5;" x1="357.5" x2="496.5" y1="157" y2="157"/><line style="stroke: #A80036; stroke-width: 1.5;" x1="357.5" x2="496.5" y1="165" y2="165"/><ellipse cx="367.5" cy="176" fill="#84BE84" rx="3" ry="3" style="stroke: #038048; stroke-width: 1.0;"/><text fill="#000000" font-family="sans-serif" font-size="11" lengthAdjust="spacingAndGlyphs" textLength="100" x="376.5" y="180.4189">AssistanceService()</text><ellipse cx="367.5" cy="189.8359" fill="#84BE84" rx="3" ry="3" style="stroke: #038048; stroke-width: 1.0;"/><text fill="#000000" font-family="sans-serif" font-size="11" lengthAdjust="spacingAndGlyphs" textLength="44" x="376.5" y="194.2549">getHelp()</text><ellipse cx="367.5" cy="203.6719" fill="#84BE84" rx="3" ry="3" style="stroke: #038048; stroke-width: 1.0;"/><text fill="#000000" font-family="sans-serif" font-size="11" lengthAdjust="spacingAndGlyphs" textLength="115" x="376.5" y="208.0908">getUserByPseudonym()</text><ellipse cx="367.5" cy="217.5078" fill="#84BE84" rx="3" ry="3" style="stroke: #038048; stroke-width: 1.0;"/><text fill="#000000" font-family="sans-serif" font-size="11" lengthAdjust="spacingAndGlyphs" textLength="115" x="376.5" y="221.9268">getCurrentPseudonym()</text><!--MD5=[d0301467bc290742ce37cb17d8777a07]
class edu.kit.scc.dem.tuhl.assistance.IAssistanceService--><rect fill="#FEFECE" filter="url(#fky2j4qc211kb)" height="89.5078" id="edu.kit.scc.dem.tuhl.assistance.IAssistanceService" style="stroke: #A80036; stroke-width: 1.5;" width="143" x="146.5" y="327"/><ellipse cx="164.65" cy="343" fill="#B4A7E5" rx="11" ry="11" style="stroke: #A80036; stroke-width: 1.0;"/><path d="M165.65,340 L165.65,346 L167.65,346 L168.1344,346 L168.65,346.625 L168.65,347 L168.65,347.375 L168.1344,348 L167.65,348 L161.65,348 L161.1656,348 L160.65,347.375 L160.65,347 L160.65,346.625 L161.1656,346 L161.65,346 L163.65,346 L163.65,340 L161.65,340 L161.1656,340 L160.65,339.375 L160.65,339 L160.65,338.625 L161.1656,338 L161.65,338 L167.65,338 L168.1344,338 L168.65,338.625 L168.65,339 L168.65,339.375 L168.1344,340 L167.65,340 L165.65,340 Z "/><text fill="#000000" font-family="sans-serif" font-size="12" font-style="italic" lengthAdjust="spacingAndGlyphs" textLength="104" x="179.35" y="347.9102">IAssistanceService</text><line style="stroke: #A80036; stroke-width: 1.5;" x1="147.5" x2="288.5" y1="359" y2="359"/><line style="stroke: #A80036; stroke-width: 1.5;" x1="147.5" x2="288.5" y1="367" y2="367"/><ellipse cx="157.5" cy="378" fill="#84BE84" rx="3" ry="3" style="stroke: #038048; stroke-width: 1.0;"/><text fill="#000000" font-family="sans-serif" font-size="11" font-style="italic" lengthAdjust="spacingAndGlyphs" textLength="46" x="166.5" y="382.4189">getHelp()</text><ellipse cx="157.5" cy="391.8359" fill="#84BE84" rx="3" ry="3" style="stroke: #038048; stroke-width: 1.0;"/><text fill="#000000" font-family="sans-serif" font-size="11" font-style="italic" lengthAdjust="spacingAndGlyphs" textLength="115" x="166.5" y="396.2549">getUserByPseudonym()</text><ellipse cx="157.5" cy="405.6719" fill="#84BE84" rx="3" ry="3" style="stroke: #038048; stroke-width: 1.0;"/><text fill="#000000" font-family="sans-serif" font-size="11" font-style="italic" lengthAdjust="spacingAndGlyphs" textLength="117" x="166.5" y="410.0908">getCurrentPseudonym()</text><!--MD5=[a11984ab256e6a99d25a90905307444e]
class edu.kit.scc.dem.tuhl.assistance.IUser--><rect fill="#FEFECE" filter="url(#fky2j4qc211kb)" height="89.5078" id="edu.kit.scc.dem.tuhl.assistance.IUser" style="stroke: #A80036; stroke-width: 1.5;" width="104" x="528" y="327"/><ellipse cx="561.9" cy="343" fill="#B4A7E5" rx="11" ry="11" style="stroke: #A80036; stroke-width: 1.0;"/><path d="M562.9,340 L562.9,346 L564.9,346 L565.3844,346 L565.9,346.625 L565.9,347 L565.9,347.375 L565.3844,348 L564.9,348 L558.9,348 L558.4156,348 L557.9,347.375 L557.9,347 L557.9,346.625 L558.4156,346 L558.9,346 L560.9,346 L560.9,340 L558.9,340 L558.4156,340 L557.9,339.375 L557.9,339 L557.9,338.625 L558.4156,338 L558.9,338 L564.9,338 L565.3844,338 L565.9,338.625 L565.9,339 L565.9,339.375 L565.3844,340 L564.9,340 L562.9,340 Z "/><text fill="#000000" font-family="sans-serif" font-size="12" font-style="italic" lengthAdjust="spacingAndGlyphs" textLength="30" x="580.1" y="347.9102">IUser</text><line style="stroke: #A80036; stroke-width: 1.5;" x1="529" x2="631" y1="359" y2="359"/><line style="stroke: #A80036; stroke-width: 1.5;" x1="529" x2="631" y1="367" y2="367"/><ellipse cx="539" cy="378" fill="#84BE84" rx="3" ry="3" style="stroke: #038048; stroke-width: 1.0;"/><text fill="#000000" font-family="sans-serif" font-size="11" font-style="italic" lengthAdjust="spacingAndGlyphs" textLength="60" x="548" y="382.4189">addSetting()</text><ellipse cx="539" cy="391.8359" fill="#84BE84" rx="3" ry="3" style="stroke: #038048; stroke-width: 1.0;"/><text fill="#000000" font-family="sans-serif" font-size="11" font-style="italic" lengthAdjust="spacingAndGlyphs" textLength="78" x="548" y="396.2549">removeSetting()</text><ellipse cx="539" cy="405.6719" fill="#84BE84" rx="3" ry="3" style="stroke: #038048; stroke-width: 1.0;"/><text fill="#000000" font-family="sans-serif" font-size="11" font-style="italic" lengthAdjust="spacingAndGlyphs" textLength="52" x="548" y="410.0908">getName()</text><!--MD5=[09990af05f0f54d4919e9021be8907d3]
class edu.kit.scc.dem.tuhl.assistance.Setting--><rect fill="#FEFECE" filter="url(#fky2j4qc211kb)" height="103.3438" id="edu.kit.scc.dem.tuhl.assistance.Setting" style="stroke: #A80036; stroke-width: 1.5;" width="77" x="244.5" y="125"/><ellipse cx="262.65" cy="141" fill="#EB937F" rx="11" ry="11" style="stroke: #A80036; stroke-width: 1.0;"/><path d="M261.15,142 L261.15,144 L265.15,144 L265.15,143 L265.15,142.5156 L265.775,142 L266.15,142 L266.525,142 L267.15,142.5156 L267.15,143 L267.15,146 L259.15,146 L258.6656,146 L258.15,145.375 L258.15,145 L258.15,144.625 L258.6656,144 L259.15,144 L259.15,144 L259.15,138 L259.15,138 L258.6656,138 L258.15,137.375 L258.15,137 L258.15,136.625 L258.6656,136 L259.15,136 L267.15,136 L267.15,139 L267.15,139.4844 L266.525,140 L266.15,140 L265.775,140 L265.15,139.4844 L265.15,139 L265.15,138 L261.15,138 L261.15,140 L262.15,140 L262.15,139.5156 L262.15,139.5156 L262.775,139 L263.15,139 L263.525,139 L264.15,139.5156 L264.15,140 L264.15,142 L264.15,142.4844 L263.525,143 L263.525,143 L263.15,143 L262.775,143 L262.15,142.4844 L262.15,142.4844 L262.15,142 L261.15,142 Z "/><text fill="#000000" font-family="sans-serif" font-size="12" lengthAdjust="spacingAndGlyphs" textLength="38" x="277.35" y="145.9102">Setting</text><line style="stroke: #A80036; stroke-width: 1.5;" x1="245.5" x2="320.5" y1="157" y2="157"/><text fill="#000000" font-family="sans-serif" font-size="11" lengthAdjust="spacingAndGlyphs" textLength="33" x="250.5" y="172.4189">FILTER</text><text fill="#000000" font-family="sans-serif" font-size="11" lengthAdjust="spacingAndGlyphs" textLength="65" x="250.5" y="186.2549">TABLE_VIEW</text><text fill="#000000" font-family="sans-serif" font-size="11" lengthAdjust="spacingAndGlyphs" textLength="65" x="250.5" y="200.0908">THUMBNAILS</text><text fill="#000000" font-family="sans-serif" font-size="11" lengthAdjust="spacingAndGlyphs" textLength="32" x="250.5" y="213.9268">values</text><line style="stroke: #A80036; stroke-width: 1.5;" x1="245.5" x2="320.5" y1="220.3438" y2="220.3438"/><!--MD5=[002fa1562dc3ef00cfc4c4777d054369]
class edu.kit.scc.dem.tuhl.assistance.User--><rect fill="#FEFECE" filter="url(#fky2j4qc211kb)" height="144.8516" id="edu.kit.scc.dem.tuhl.assistance.User" style="stroke: #A80036; stroke-width: 1.5;" width="135" x="532.5" y="104"/><ellipse cx="582.25" cy="120" fill="#ADD1B2" rx="11" ry="11" style="stroke: #A80036; stroke-width: 1.0;"/><path d="M584.25,116.5 Q584.4531,116 584.6875,115.75 Q584.9219,115.5 585.1875,115.5 Q585.6563,115.5 585.9531,115.7813 Q586.25,116.0625 586.25,116.7188 L586.25,118.2813 Q586.25,118.9375 585.9688,119.2188 Q585.6875,119.5 585.25,119.5 Q584.8594,119.5 584.6094,119.3281 Q584.3594,119.1563 584.25,118.7031 Q584.2031,118.3906 584.0313,118.2188 Q583.7188,117.8906 583.1563,117.7031 Q582.5938,117.5 582.0313,117.5 Q581.3281,117.5 580.7344,117.7813 Q580.1563,118.0625 579.7031,118.6875 Q579.25,119.3125 579.25,120.1719 L579.25,121.0938 Q579.25,122.125 580.0938,122.8125 Q580.9375,123.5 582.4375,123.5 Q583.3281,123.5 583.9531,123.2969 Q584.3125,123.1875 584.7188,122.8281 Q584.9844,122.625 585.125,122.5625 Q585.2656,122.5 585.4375,122.5 Q585.7656,122.5 586,122.7656 Q586.25,123.0156 586.25,123.375 Q586.25,123.7188 585.9063,124.125 Q585.4063,124.7188 584.6094,125.0469 Q583.5625,125.5 582.2813,125.5 Q580.7813,125.5 579.5781,124.9063 Q578.6094,124.4375 577.9219,123.4219 Q577.25,122.4063 577.25,121.2031 L577.25,120.1094 Q577.25,118.8594 577.8438,117.7656 Q578.4531,116.6719 579.5,116.0938 Q580.5625,115.5 581.75,115.5 Q582.4688,115.5 583.0938,115.75 Q583.7188,116 584.25,116.5 Z "/><text fill="#000000" font-family="sans-serif" font-size="12" lengthAdjust="spacingAndGlyphs" textLength="27" x="602.75" y="124.9102">User</text><line style="stroke: #A80036; stroke-width: 1.5;" x1="533.5" x2="666.5" y1="136" y2="136"/><rect fill="none" height="6" style="stroke: #C82930; stroke-width: 1.0;" width="6" x="540.5" y="144"/><text fill="#000000" font-family="sans-serif" font-size="11" lengthAdjust="spacingAndGlyphs" textLength="63" x="552.5" y="151.4189">name : String</text><rect fill="none" height="6" style="stroke: #C82930; stroke-width: 1.0;" width="6" x="540.5" y="157.8359"/><text fill="#000000" font-family="sans-serif" font-size="11" lengthAdjust="spacingAndGlyphs" textLength="109" x="552.5" y="165.2549">settings : List&lt;Setting&gt;</text><line style="stroke: #A80036; stroke-width: 1.5;" x1="533.5" x2="666.5" y1="171.6719" y2="171.6719"/><ellipse cx="543.5" cy="182.6719" fill="#84BE84" rx="3" ry="3" style="stroke: #038048; stroke-width: 1.0;"/><text fill="#000000" font-family="sans-serif" font-size="11" lengthAdjust="spacingAndGlyphs" textLength="31" x="552.5" y="187.0908">User()</text><ellipse cx="543.5" cy="196.5078" fill="#84BE84" rx="3" ry="3" style="stroke: #038048; stroke-width: 1.0;"/><text fill="#000000" font-family="sans-serif" font-size="11" lengthAdjust="spacingAndGlyphs" textLength="59" x="552.5" y="200.9268">addSetting()</text><ellipse cx="543.5" cy="210.3438" fill="#84BE84" rx="3" ry="3" style="stroke: #038048; stroke-width: 1.0;"/><text fill="#000000" font-family="sans-serif" font-size="11" lengthAdjust="spacingAndGlyphs" textLength="77" x="552.5" y="214.7627">removeSetting()</text><ellipse cx="543.5" cy="224.1797" fill="#84BE84" rx="3" ry="3" style="stroke: #038048; stroke-width: 1.0;"/><text fill="#000000" font-family="sans-serif" font-size="11" lengthAdjust="spacingAndGlyphs" textLength="50" x="552.5" y="228.5986">getName()</text><polygon fill="#FFFF44" points="543.5,233.0156,547.5,237.0156,543.5,241.0156,539.5,237.0156" style="stroke: #B38D22; stroke-width: 1.0;"/><text fill="#000000" font-family="sans-serif" font-size="11" lengthAdjust="spacingAndGlyphs" textLength="31" x="552.5" y="242.4346">User()</text><!--MD5=[c1ee0926d7aa82b64c00da444be711a8]
class edu.kit.scc.dem.tuhl.assistance.UserRepository--><rect fill="#FEFECE" filter="url(#fky2j4qc211kb)" height="48" id="edu.kit.scc.dem.tuhl.assistance.UserRepository" style="stroke: #A80036; stroke-width: 1.5;" width="117" x="368.5" y="348"/><ellipse cx="383.5" cy="364" fill="#B4A7E5" rx="11" ry="11" style="stroke: #A80036; stroke-width: 1.0;"/><path d="M384.5,361 L384.5,367 L386.5,367 L386.9844,367 L387.5,367.625 L387.5,368 L387.5,368.375 L386.9844,369 L386.5,369 L380.5,369 L380.0156,369 L379.5,368.375 L379.5,368 L379.5,367.625 L380.0156,367 L380.5,367 L382.5,367 L382.5,361 L380.5,361 L380.0156,361 L379.5,360.375 L379.5,360 L379.5,359.625 L380.0156,359 L380.5,359 L386.5,359 L386.9844,359 L387.5,359.625 L387.5,360 L387.5,360.375 L386.9844,361 L386.5,361 L384.5,361 Z "/><text fill="#000000" font-family="sans-serif" font-size="12" font-style="italic" lengthAdjust="spacingAndGlyphs" textLength="85" x="397.5" y="368.9102">UserRepository</text><line style="stroke: #A80036; stroke-width: 1.5;" x1="369.5" x2="484.5" y1="380" y2="380"/><line style="stroke: #A80036; stroke-width: 1.5;" x1="369.5" x2="484.5" y1="388" y2="388"/><!--MD5=[3fbccef19b532c05706e5c4e58866e42]
reverse link edu.kit.scc.dem.tuhl.assistance.AssistanceController to edu.kit.scc.dem.tuhl.assistance.IAssistanceService--><path d="M162.621,240.318 C174.61,268.609 188.477,301.333 199.336,326.957 " fill="none" id="edu.kit.scc.dem.tuhl.assistance.AssistanceController&lt;-edu.kit.scc.dem.tuhl.assistance.IAssistanceService" style="stroke: #A80036; stroke-width: 1.0;"/><polygon fill="#FFFFFF" points="157.437,228.087,156.0956,235.1722,162.1199,239.1355,163.4613,232.0503,157.437,228.087" style="stroke: #A80036; stroke-width: 1.0;"/><text fill="#000000" font-family="sans-serif" font-size="13" lengthAdjust="spacingAndGlyphs" textLength="105" x="186" y="293.4951">assistanceService</text><!--MD5=[b821ac21b25ac67a375a49528c6c8093]
link edu.kit.scc.dem.tuhl.assistance.AssistanceService to edu.kit.scc.dem.tuhl.assistance.IAssistanceService--><path d="M373.78,228.042 C351.137,249.425 324.378,274.535 300,297 C294.216,302.33 288.181,307.851 282.123,313.366 " fill="none" id="edu.kit.scc.dem.tuhl.assistance.AssistanceService-&gt;edu.kit.scc.dem.tuhl.assistance.IAssistanceService" style="stroke: #A80036; stroke-width: 1.0; stroke-dasharray: 7.0,7.0;"/><polygon fill="none" points="286.665,318.697,267.149,326.949,277.26,308.327,286.665,318.697" style="stroke: #A80036; stroke-width: 1.0;"/><!--MD5=[d98dcf6d1bbb258cb58c499493e30256]
reverse link edu.kit.scc.dem.tuhl.assistance.AssistanceService to edu.kit.scc.dem.tuhl.assistance.IUser--><path d="M467.816,239 C481.062,258 496.175,278.726 511,297 C519.079,306.958 528.161,317.254 537.017,326.886 " fill="none" id="edu.kit.scc.dem.tuhl.assistance.AssistanceService&lt;-edu.kit.scc.dem.tuhl.assistance.IUser" style="stroke: #A80036; stroke-width: 1.0;"/><polygon fill="#FFFFFF" points="460.25,228.044,460.3691,235.2541,467.0704,237.9173,466.9513,230.7072,460.25,228.044" style="stroke: #A80036; stroke-width: 1.0;"/><text fill="#000000" font-family="sans-serif" font-size="13" lengthAdjust="spacingAndGlyphs" textLength="67" x="512" y="293.4951">currentUser</text><!--MD5=[3d20818397b58ca33673d6f664709786]
reverse link edu.kit.scc.dem.tuhl.assistance.AssistanceService to edu.kit.scc.dem.tuhl.assistance.UserRepository--><path d="M426.11,241.201 C425.955,259.239 425.878,278.891 426,297 C426.115,313.959 426.377,333.104 426.604,347.671 " fill="none" id="edu.kit.scc.dem.tuhl.assistance.AssistanceService&lt;-edu.kit.scc.dem.tuhl.assistance.UserRepository" style="stroke: #A80036; stroke-width: 1.0;"/><polygon fill="#FFFFFF" points="426.238,228.087,422.1789,234.0471,426.1193,240.0864,430.1785,234.1263,426.238,228.087" style="stroke: #A80036; stroke-width: 1.0;"/><text fill="#000000" font-family="sans-serif" font-size="13" lengthAdjust="spacingAndGlyphs" textLength="25" x="427" y="293.4951">repo</text><!--MD5=[cad0af2e6f218f4daf4fe469162cb924]
link edu.kit.scc.dem.tuhl.assistance.User to edu.kit.scc.dem.tuhl.assistance.IUser--><path d="M592.61,249.002 C590.653,267.932 588.553,288.248 586.639,306.765 " fill="none" id="edu.kit.scc.dem.tuhl.assistance.User-&gt;edu.kit.scc.dem.tuhl.assistance.IUser" style="stroke: #A80036; stroke-width: 1.0; stroke-dasharray: 7.0,7.0;"/><polygon fill="none" points="593.594,307.564,584.575,326.738,579.668,306.124,593.594,307.564" style="stroke: #A80036; stroke-width: 1.0;"/><!--MD5=[9b47767b234a9c4889097b6b011d06e1]
@startuml

  namespace edu.kit.scc.dem.tuhl {
    namespace assisstance {
      class edu.kit.scc.dem.tuhl.assistance.AssistanceController {
          + AssistanceController()
          + help()
          + setPseudonym()
          + setSetting()
      }

      class edu.kit.scc.dem.tuhl.assistance.AssistanceService {
          + AssistanceService()
          + getHelp()
          + getUserByPseudonym()
          + getCurrentPseudonym()
      }

      interface edu.kit.scc.dem.tuhl.assistance.IAssistanceService {
          {abstract} + getHelp()
          {abstract} + getUserByPseudonym()
          {abstract} + getCurrentPseudonym()
      }

      interface edu.kit.scc.dem.tuhl.assistance.IUser {
          {abstract} + addSetting()
          {abstract} + removeSetting()
          {abstract} + getName()
      }

      enum Setting {
        FILTER
        TABLE_VIEW
        THUMBNAILS
        values
      }

      class edu.kit.scc.dem.tuhl.assistance.User {
          - name : String
          - settings : List<Setting>
          + User()
          + addSetting()
          + removeSetting()
          + getName()
          # User()
      }

      interface edu.kit.scc.dem.tuhl.assistance.UserRepository {
      }
    }
  }


  edu.kit.scc.dem.tuhl.assistance.AssistanceController o- - edu.kit.scc.dem.tuhl.assistance.IAssistanceService : assistanceService
  edu.kit.scc.dem.tuhl.assistance.AssistanceService ..|> edu.kit.scc.dem.tuhl.assistance.IAssistanceService
  edu.kit.scc.dem.tuhl.assistance.AssistanceService o- - edu.kit.scc.dem.tuhl.assistance.IUser : currentUser
  edu.kit.scc.dem.tuhl.assistance.AssistanceService o- - edu.kit.scc.dem.tuhl.assistance.UserRepository : repo
  edu.kit.scc.dem.tuhl.assistance.User ..|> edu.kit.scc.dem.tuhl.assistance.IUser

@enduml

PlantUML version 1.2020.09(Sun May 10 12:51:06 CEST 2020)
(GPL source distribution)
Java Runtime: OpenJDK Runtime Environment
JVM: OpenJDK 64-Bit Server VM
Java Version: 11.0.7+10-b765.53
Operating System: Windows 10
Default Encoding: Cp1252
Language: en
Country: GB
--></g></svg>