<?xml version="1.0" encoding="UTF-8" standalone="no"?><svg xmlns="http://www.w3.org/2000/svg" xmlns:xlink="http://www.w3.org/1999/xlink" contentScriptType="application/ecmascript" contentStyleType="text/css" height="264.6px" preserveAspectRatio="none" style="width:327px;height:264px;" version="1.1" viewBox="0 0 327 264" width="327.9px" zoomAndPan="magnify"><defs><filter height="300%" id="fydb88bhj2zar" width="300%" x="-1" y="-1"><feGaussianBlur result="blurOut" stdDeviation="0.6"/><feColorMatrix in="blurOut" result="blurOut2" type="matrix" values="0 0 0 0 0 0 0 0 0 0 0 0 0 0 0 0 0 0 .4 0"/><feOffset dx="1.2" dy="1.2" in="blurOut2" result="blurOut3"/><feBlend in="SourceGraphic" in2="blurOut3" mode="normal"/></filter></defs><g><!--MD5=[ca9e8be6af02eb0b27d792bbec3aa2a6]
cluster edu.kit.scc.dem.tuhl--><polygon fill="#FFFFFF" filter="url(#fydb88bhj2zar)" points="6.6,7.2,50.7,7.2,52.8,14.2828,321.3,14.2828,321.3,198.9,6.6,198.9,6.6,7.2" style="stroke: #000000; stroke-width: 0.44999999999999996;"/><line style="stroke: #000000; stroke-width: 0.44999999999999996;" x1="6.6" x2="52.8" y1="14.2828" y2="14.2828"/><text fill="#000000" font-family="sans-serif" font-size="4.2" font-weight="bold" lengthAdjust="spacingAndGlyphs" textLength="42.3" x="7.8" y="12.16">edu.kit.scc.dem.tuhl</text><!--MD5=[64cde7d8cfc239b57563ce1c7d86ead1]
cluster edu.kit.scc.dem.tuhl.mainpage--><polygon fill="#FFFFFF" filter="url(#fydb88bhj2zar)" points="13.8,20.4,36,20.4,38.1,27.4828,314.1,27.4828,314.1,191.7,13.8,191.7,13.8,20.4" style="stroke: #000000; stroke-width: 0.44999999999999996;"/><line style="stroke: #000000; stroke-width: 0.44999999999999996;" x1="13.8" x2="38.1" y1="27.4828" y2="27.4828"/><text fill="#000000" font-family="sans-serif" font-size="4.2" font-weight="bold" lengthAdjust="spacingAndGlyphs" textLength="20.4" x="15" y="25.36">mainpage</text><!--MD5=[7f02db948d193328791f729faa89b234]
cluster edu.kit.scc.dem.tuhl.mainpage.dashboard--><polygon fill="#FFFFFF" filter="url(#fydb88bhj2zar)" points="21,33.6,45.3,33.6,47.4,40.6828,306.9,40.6828,306.9,184.5,21,184.5,21,33.6" style="stroke: #000000; stroke-width: 0.44999999999999996;"/><line style="stroke: #000000; stroke-width: 0.44999999999999996;" x1="21" x2="47.4" y1="40.6828" y2="40.6828"/><text fill="#000000" font-family="sans-serif" font-size="4.2" font-weight="bold" lengthAdjust="spacingAndGlyphs" textLength="22.5" x="22.2" y="38.56">dashboard</text><!--MD5=[2584b29d340ac6b7bb53bfa3b75725ca]
cluster edu.kit.scc.dem.tuhl.mainpage.dashboard.contentview--><polygon fill="#FFFFFF" filter="url(#fydb88bhj2zar)" points="28.2,46.8,56.1,46.8,58.2,53.8828,299.7,53.8828,299.7,110.4,28.2,110.4,28.2,46.8" style="stroke: #000000; stroke-width: 0.44999999999999996;"/><line style="stroke: #000000; stroke-width: 0.44999999999999996;" x1="28.2" x2="58.2" y1="53.8828" y2="53.8828"/><text fill="#000000" font-family="sans-serif" font-size="4.2" font-weight="bold" lengthAdjust="spacingAndGlyphs" textLength="26.1" x="29.4" y="51.76">contentview</text><!--MD5=[c2d4b80af516d3955d91f6728b16a3b0]
cluster edu.kit.scc.dem.tuhl.mainpage.search--><polygon fill="#FFFFFF" filter="url(#fydb88bhj2zar)" points="230.85,206.1,312.15,206.1,314.25,213.1828,315.15,213.1828,315.15,261,230.85,261,230.85,206.1" style="stroke: #000000; stroke-width: 0.44999999999999996;"/><line style="stroke: #000000; stroke-width: 0.44999999999999996;" x1="230.85" x2="314.25" y1="213.1828" y2="213.1828"/><text fill="#000000" font-family="sans-serif" font-size="4.2" font-weight="bold" lengthAdjust="spacingAndGlyphs" textLength="79.5" x="232.05" y="211.06">edu.kit.scc.dem.tuhl.mainpage.search</text><!--MD5=[d5162ec7f2f2e77dabaea0d864f441c3]
class edu.kit.scc.dem.tuhl.mainpage.dashboard.DashboardController--><rect fill="#FEFECE" filter="url(#fydb88bhj2zar)" height="18.5508" id="edu.kit.scc.dem.tuhl.mainpage.dashboard.DashboardController" style="stroke: #A80036; stroke-width: 0.44999999999999996;" width="44.4" x="32.25" y="115.2"/><ellipse cx="36.75" cy="120" fill="#ADD1B2" rx="3.3" ry="3.3" style="stroke: #A80036; stroke-width: 0.3;"/><path d="M37.35,118.95 Q37.4109,118.8 37.4812,118.725 Q37.5516,118.65 37.6313,118.65 Q37.7719,118.65 37.8609,118.7344 Q37.95,118.8188 37.95,119.0156 L37.95,119.4844 Q37.95,119.6812 37.8656,119.7656 Q37.7813,119.85 37.65,119.85 Q37.5328,119.85 37.4578,119.7984 Q37.3828,119.7469 37.35,119.6109 Q37.3359,119.5172 37.2844,119.4656 Q37.1906,119.3672 37.0219,119.3109 Q36.8531,119.25 36.6844,119.25 Q36.4734,119.25 36.2953,119.3344 Q36.1219,119.4187 35.9859,119.6062 Q35.85,119.7937 35.85,120.0516 L35.85,120.3281 Q35.85,120.6375 36.1031,120.8438 Q36.3562,121.05 36.8063,121.05 Q37.0734,121.05 37.2609,120.9891 Q37.3688,120.9563 37.4906,120.8484 Q37.5703,120.7875 37.6125,120.7688 Q37.6547,120.75 37.7063,120.75 Q37.8047,120.75 37.875,120.8297 Q37.95,120.9047 37.95,121.0125 Q37.95,121.1156 37.8469,121.2375 Q37.6969,121.4156 37.4578,121.5141 Q37.1438,121.65 36.7594,121.65 Q36.3094,121.65 35.9484,121.4719 Q35.6578,121.3313 35.4516,121.0266 Q35.25,120.7219 35.25,120.3609 L35.25,120.0328 Q35.25,119.6578 35.4281,119.3297 Q35.6109,119.0016 35.925,118.8281 Q36.2438,118.65 36.6,118.65 Q36.8156,118.65 37.0031,118.725 Q37.1906,118.8 37.35,118.95 Z "/><text fill="#000000" font-family="sans-serif" font-size="3.6" lengthAdjust="spacingAndGlyphs" textLength="34.8" x="40.95" y="121.473">DashboardController</text><line style="stroke: #A80036; stroke-width: 0.44999999999999996;" x1="32.55" x2="76.35" y1="124.8" y2="124.8"/><line style="stroke: #A80036; stroke-width: 0.44999999999999996;" x1="32.55" x2="76.35" y1="127.2" y2="127.2"/><ellipse cx="35.55" cy="130.5" fill="#84BE84" rx="0.9" ry="0.9" style="stroke: #038048; stroke-width: 0.3;"/><text fill="#000000" font-family="sans-serif" font-size="3.3" lengthAdjust="spacingAndGlyphs" textLength="26.7" x="38.25" y="131.8257">showDashboard()</text><!--MD5=[740a9f24fdbe76d600a7be9e6da1c29b]
class edu.kit.scc.dem.tuhl.mainpage.dashboard.DashboardService--><rect fill="#FEFECE" filter="url(#fydb88bhj2zar)" height="35.1539" id="edu.kit.scc.dem.tuhl.mainpage.dashboard.DashboardService" style="stroke: #A80036; stroke-width: 0.44999999999999996;" width="54" x="27.45" y="144.45"/><ellipse cx="38.16" cy="149.25" fill="#ADD1B2" rx="3.3" ry="3.3" style="stroke: #A80036; stroke-width: 0.3;"/><path d="M38.76,148.2 Q38.8209,148.05 38.8912,147.975 Q38.9616,147.9 39.0413,147.9 Q39.1819,147.9 39.2709,147.9844 Q39.36,148.0688 39.36,148.2656 L39.36,148.7344 Q39.36,148.9313 39.2756,149.0156 Q39.1913,149.1 39.06,149.1 Q38.9428,149.1 38.8678,149.0484 Q38.7928,148.9969 38.76,148.8609 Q38.7459,148.7672 38.6944,148.7156 Q38.6006,148.6172 38.4319,148.5609 Q38.2631,148.5 38.0944,148.5 Q37.8834,148.5 37.7053,148.5844 Q37.5319,148.6688 37.3959,148.8563 Q37.26,149.0438 37.26,149.3016 L37.26,149.5781 Q37.26,149.8875 37.5131,150.0938 Q37.7663,150.3 38.2163,150.3 Q38.4834,150.3 38.6709,150.2391 Q38.7787,150.2062 38.9006,150.0984 Q38.9803,150.0375 39.0225,150.0187 Q39.0647,150 39.1162,150 Q39.2147,150 39.285,150.0797 Q39.36,150.1547 39.36,150.2625 Q39.36,150.3656 39.2569,150.4875 Q39.1069,150.6656 38.8678,150.7641 Q38.5537,150.9 38.1694,150.9 Q37.7194,150.9 37.3584,150.7219 Q37.0678,150.5812 36.8616,150.2766 Q36.66,149.9719 36.66,149.6109 L36.66,149.2828 Q36.66,148.9078 36.8381,148.5797 Q37.0209,148.2516 37.335,148.0781 Q37.6538,147.9 38.01,147.9 Q38.2256,147.9 38.4131,147.975 Q38.6006,148.05 38.76,148.2 Z "/><text fill="#000000" font-family="sans-serif" font-size="3.6" lengthAdjust="spacingAndGlyphs" textLength="30.6" x="43.74" y="150.723">DashboardService</text><line style="stroke: #A80036; stroke-width: 0.44999999999999996;" x1="27.75" x2="81.15" y1="154.05" y2="154.05"/><rect fill="none" height="1.8" style="stroke: #C82930; stroke-width: 0.3;" width="1.8" x="29.85" y="156.45"/><text fill="#000000" font-family="sans-serif" font-size="3.3" lengthAdjust="spacingAndGlyphs" textLength="46.2" x="33.45" y="158.6757">availableContentViews : String[]</text><rect fill="none" height="1.8" style="stroke: #C82930; stroke-width: 0.3;" width="1.8" x="29.85" y="160.6008"/><text fill="#000000" font-family="sans-serif" font-size="3.3" lengthAdjust="spacingAndGlyphs" textLength="40.5" x="33.45" y="162.8265">currentContentView : String</text><line style="stroke: #A80036; stroke-width: 0.44999999999999996;" x1="27.75" x2="81.15" y1="164.7516" y2="164.7516"/><ellipse cx="30.75" cy="168.0516" fill="#84BE84" rx="0.9" ry="0.9" style="stroke: #038048; stroke-width: 0.3;"/><text fill="#000000" font-family="sans-serif" font-size="3.3" lengthAdjust="spacingAndGlyphs" textLength="40.8" x="33.45" y="169.3772">getAvailableContentViews()</text><ellipse cx="30.75" cy="172.2023" fill="#84BE84" rx="0.9" ry="0.9" style="stroke: #038048; stroke-width: 0.3;"/><text fill="#000000" font-family="sans-serif" font-size="3.3" lengthAdjust="spacingAndGlyphs" textLength="36.6" x="33.45" y="173.528">getCurrentContentView()</text><ellipse cx="30.75" cy="176.3531" fill="#84BE84" rx="0.9" ry="0.9" style="stroke: #038048; stroke-width: 0.3;"/><text fill="#000000" font-family="sans-serif" font-size="3.3" lengthAdjust="spacingAndGlyphs" textLength="36.6" x="33.45" y="177.6788">setCurrentContentView()</text><!--MD5=[34b82408c21f6ed91472f6ebefe26a0d]
class edu.kit.scc.dem.tuhl.mainpage.dashboard.IDashboardService--><rect fill="#FEFECE" filter="url(#fydb88bhj2zar)" height="26.8523" id="edu.kit.scc.dem.tuhl.mainpage.dashboard.IDashboardService" style="stroke: #A80036; stroke-width: 0.44999999999999996;" width="48.6" x="132.45" y="129.9"/><ellipse cx="140.055" cy="134.7" fill="#B4A7E5" rx="3.3" ry="3.3" style="stroke: #A80036; stroke-width: 0.3;"/><path d="M140.355,133.8 L140.355,135.6 L140.955,135.6 L141.1003,135.6 L141.255,135.7875 L141.255,135.9 L141.255,136.0125 L141.1003,136.2 L140.955,136.2 L139.155,136.2 L139.0097,136.2 L138.855,136.0125 L138.855,135.9 L138.855,135.7875 L139.0097,135.6 L139.155,135.6 L139.755,135.6 L139.755,133.8 L139.155,133.8 L139.0097,133.8 L138.855,133.6125 L138.855,133.5 L138.855,133.3875 L139.0097,133.2 L139.155,133.2 L140.955,133.2 L141.1003,133.2 L141.255,133.3875 L141.255,133.5 L141.255,133.6125 L141.1003,133.8 L140.955,133.8 L140.355,133.8 Z "/><text fill="#000000" font-family="sans-serif" font-size="3.6" font-style="italic" lengthAdjust="spacingAndGlyphs" textLength="32.1" x="144.945" y="136.173">IDashboardService</text><line style="stroke: #A80036; stroke-width: 0.44999999999999996;" x1="132.75" x2="180.75" y1="139.5" y2="139.5"/><line style="stroke: #A80036; stroke-width: 0.44999999999999996;" x1="132.75" x2="180.75" y1="141.9" y2="141.9"/><ellipse cx="135.75" cy="145.2" fill="#84BE84" rx="0.9" ry="0.9" style="stroke: #038048; stroke-width: 0.3;"/><text fill="#000000" font-family="sans-serif" font-size="3.3" font-style="italic" lengthAdjust="spacingAndGlyphs" textLength="40.8" x="138.45" y="146.5257">getAvailableContentViews()</text><ellipse cx="135.75" cy="149.3508" fill="#84BE84" rx="0.9" ry="0.9" style="stroke: #038048; stroke-width: 0.3;"/><text fill="#000000" font-family="sans-serif" font-size="3.3" font-style="italic" lengthAdjust="spacingAndGlyphs" textLength="36.3" x="138.45" y="150.6765">getCurrentContentView()</text><ellipse cx="135.75" cy="153.5016" fill="#84BE84" rx="0.9" ry="0.9" style="stroke: #038048; stroke-width: 0.3;"/><text fill="#000000" font-family="sans-serif" font-size="3.3" font-style="italic" lengthAdjust="spacingAndGlyphs" textLength="36.3" x="138.45" y="154.8272">setCurrentContentView()</text><!--MD5=[120cbbfbdf5a7c57887f2c768367de1b]
class edu.kit.scc.dem.tuhl.mainpage.dashboard.contentview.IContentViewService--><rect fill="#FEFECE" filter="url(#fydb88bhj2zar)" height="18.5508" id="edu.kit.scc.dem.tuhl.mainpage.dashboard.contentview.IContentViewService" style="stroke: #A80036; stroke-width: 0.44999999999999996;" width="43.8" x="251.1" y="72.3"/><ellipse cx="255.6" cy="77.1" fill="#B4A7E5" rx="3.3" ry="3.3" style="stroke: #A80036; stroke-width: 0.3;"/><path d="M255.9,76.2 L255.9,78 L256.5,78 L256.6453,78 L256.8,78.1875 L256.8,78.3 L256.8,78.4125 L256.6453,78.6 L256.5,78.6 L254.7,78.6 L254.5547,78.6 L254.4,78.4125 L254.4,78.3 L254.4,78.1875 L254.5547,78 L254.7,78 L255.3,78 L255.3,76.2 L254.7,76.2 L254.5547,76.2 L254.4,76.0125 L254.4,75.9 L254.4,75.7875 L254.5547,75.6 L254.7,75.6 L256.5,75.6 L256.6453,75.6 L256.8,75.7875 L256.8,75.9 L256.8,76.0125 L256.6453,76.2 L256.5,76.2 L255.9,76.2 Z "/><text fill="#000000" font-family="sans-serif" font-size="3.6" font-style="italic" lengthAdjust="spacingAndGlyphs" textLength="34.2" x="259.8" y="78.573">IContentViewService</text><line style="stroke: #A80036; stroke-width: 0.44999999999999996;" x1="251.4" x2="294.6" y1="81.9" y2="81.9"/><line style="stroke: #A80036; stroke-width: 0.44999999999999996;" x1="251.4" x2="294.6" y1="84.3" y2="84.3"/><ellipse cx="254.4" cy="87.6" fill="#84BE84" rx="0.9" ry="0.9" style="stroke: #038048; stroke-width: 0.3;"/><text fill="#000000" font-family="sans-serif" font-size="3.3" font-style="italic" lengthAdjust="spacingAndGlyphs" textLength="14.1" x="257.1" y="88.9257">getType()</text><!--MD5=[129dbad46d56b26ae4bb4bbae4c31e5d]
class edu.kit.scc.dem.tuhl.mainpage.dashboard.contentview.TableViewController--><rect fill="#FEFECE" filter="url(#fydb88bhj2zar)" height="35.1539" id="edu.kit.scc.dem.tuhl.mainpage.dashboard.contentview.TableViewController" style="stroke: #A80036; stroke-width: 0.44999999999999996;" width="42.9" x="33" y="64.05"/><ellipse cx="37.5" cy="68.85" fill="#ADD1B2" rx="3.3" ry="3.3" style="stroke: #A80036; stroke-width: 0.3;"/><path d="M38.1,67.8 Q38.1609,67.65 38.2312,67.575 Q38.3016,67.5 38.3813,67.5 Q38.5219,67.5 38.6109,67.5844 Q38.7,67.6688 38.7,67.8656 L38.7,68.3344 Q38.7,68.5313 38.6156,68.6156 Q38.5313,68.7 38.4,68.7 Q38.2828,68.7 38.2078,68.6484 Q38.1328,68.5969 38.1,68.4609 Q38.0859,68.3672 38.0344,68.3156 Q37.9406,68.2172 37.7719,68.1609 Q37.6031,68.1 37.4344,68.1 Q37.2234,68.1 37.0453,68.1844 Q36.8719,68.2688 36.7359,68.4563 Q36.6,68.6438 36.6,68.9016 L36.6,69.1781 Q36.6,69.4875 36.8531,69.6938 Q37.1062,69.9 37.5563,69.9 Q37.8234,69.9 38.0109,69.8391 Q38.1188,69.8062 38.2406,69.6984 Q38.3203,69.6375 38.3625,69.6187 Q38.4047,69.6 38.4563,69.6 Q38.5547,69.6 38.625,69.6797 Q38.7,69.7547 38.7,69.8625 Q38.7,69.9656 38.5969,70.0875 Q38.4469,70.2656 38.2078,70.3641 Q37.8938,70.5 37.5094,70.5 Q37.0594,70.5 36.6984,70.3219 Q36.4078,70.1812 36.2016,69.8766 Q36,69.5719 36,69.2109 L36,68.8828 Q36,68.5078 36.1781,68.1797 Q36.3609,67.8516 36.675,67.6781 Q36.9938,67.5 37.35,67.5 Q37.5656,67.5 37.7531,67.575 Q37.9406,67.65 38.1,67.8 Z "/><text fill="#000000" font-family="sans-serif" font-size="3.6" lengthAdjust="spacingAndGlyphs" textLength="33.3" x="41.7" y="70.323">TableViewController</text><line style="stroke: #A80036; stroke-width: 0.44999999999999996;" x1="33.3" x2="75.6" y1="73.65" y2="73.65"/><line style="stroke: #A80036; stroke-width: 0.44999999999999996;" x1="33.3" x2="75.6" y1="76.05" y2="76.05"/><ellipse cx="36.3" cy="79.35" fill="#84BE84" rx="0.9" ry="0.9" style="stroke: #038048; stroke-width: 0.3;"/><text fill="#000000" font-family="sans-serif" font-size="3.3" lengthAdjust="spacingAndGlyphs" textLength="20.1" x="39" y="80.6757">addAttribute()</text><ellipse cx="36.3" cy="83.5008" fill="#84BE84" rx="0.9" ry="0.9" style="stroke: #038048; stroke-width: 0.3;"/><text fill="#000000" font-family="sans-serif" font-size="3.3" lengthAdjust="spacingAndGlyphs" textLength="23.4" x="39" y="84.8265">deleteAttribute()</text><ellipse cx="36.3" cy="87.6516" fill="#84BE84" rx="0.9" ry="0.9" style="stroke: #038048; stroke-width: 0.3;"/><text fill="#000000" font-family="sans-serif" font-size="3.3" lengthAdjust="spacingAndGlyphs" textLength="15.9" x="39" y="88.9772">nextPage()</text><ellipse cx="36.3" cy="91.8023" fill="#84BE84" rx="0.9" ry="0.9" style="stroke: #038048; stroke-width: 0.3;"/><text fill="#000000" font-family="sans-serif" font-size="3.3" lengthAdjust="spacingAndGlyphs" textLength="29.7" x="39" y="93.128">showContentView()</text><ellipse cx="36.3" cy="95.9531" fill="#84BE84" rx="0.9" ry="0.9" style="stroke: #038048; stroke-width: 0.3;"/><text fill="#000000" font-family="sans-serif" font-size="3.3" lengthAdjust="spacingAndGlyphs" textLength="27" x="39" y="97.2788">showThumbnails()</text><!--MD5=[e91f4c90484a6b2b83aa18cbdc83ed3e]
class edu.kit.scc.dem.tuhl.mainpage.dashboard.contentview.TableViewService--><rect fill="#FEFECE" filter="url(#fydb88bhj2zar)" height="47.6062" id="edu.kit.scc.dem.tuhl.mainpage.dashboard.contentview.TableViewService" style="stroke: #A80036; stroke-width: 0.44999999999999996;" width="52.2" x="130.65" y="57.75"/><ellipse cx="141.225" cy="62.55" fill="#ADD1B2" rx="3.3" ry="3.3" style="stroke: #A80036; stroke-width: 0.3;"/><path d="M141.825,61.5 Q141.8859,61.35 141.9562,61.275 Q142.0266,61.2 142.1063,61.2 Q142.2469,61.2 142.3359,61.2844 Q142.425,61.3688 142.425,61.5656 L142.425,62.0344 Q142.425,62.2312 142.3406,62.3156 Q142.2563,62.4 142.125,62.4 Q142.0078,62.4 141.9328,62.3484 Q141.8578,62.2969 141.825,62.1609 Q141.8109,62.0672 141.7594,62.0156 Q141.6656,61.9172 141.4969,61.8609 Q141.3281,61.8 141.1594,61.8 Q140.9484,61.8 140.7703,61.8844 Q140.5969,61.9688 140.4609,62.1563 Q140.325,62.3438 140.325,62.6016 L140.325,62.8781 Q140.325,63.1875 140.5781,63.3938 Q140.8312,63.6 141.2813,63.6 Q141.5484,63.6 141.7359,63.5391 Q141.8438,63.5062 141.9656,63.3984 Q142.0453,63.3375 142.0875,63.3187 Q142.1297,63.3 142.1813,63.3 Q142.2797,63.3 142.35,63.3797 Q142.425,63.4547 142.425,63.5625 Q142.425,63.6656 142.3219,63.7875 Q142.1719,63.9656 141.9328,64.0641 Q141.6188,64.2 141.2344,64.2 Q140.7844,64.2 140.4234,64.0219 Q140.1328,63.8812 139.9266,63.5766 Q139.725,63.2719 139.725,62.9109 L139.725,62.5828 Q139.725,62.2078 139.9031,61.8797 Q140.0859,61.5516 140.4,61.3781 Q140.7188,61.2 141.075,61.2 Q141.2906,61.2 141.4781,61.275 Q141.6656,61.35 141.825,61.5 Z "/><text fill="#000000" font-family="sans-serif" font-size="3.6" lengthAdjust="spacingAndGlyphs" textLength="29.1" x="146.775" y="64.023">TableViewService</text><line style="stroke: #A80036; stroke-width: 0.44999999999999996;" x1="130.95" x2="182.55" y1="67.35" y2="67.35"/><rect fill="none" height="1.8" style="stroke: #C82930; stroke-width: 0.3;" width="1.8" x="133.05" y="69.75"/><text fill="#000000" font-family="sans-serif" font-size="3.3" lengthAdjust="spacingAndGlyphs" textLength="44.4" x="136.65" y="71.9757">currentAttributes : List&lt;String&gt;</text><rect fill="none" height="1.8" style="stroke: #C82930; stroke-width: 0.3;" width="1.8" x="133.05" y="73.9008"/><text fill="#000000" font-family="sans-serif" font-size="3.3" lengthAdjust="spacingAndGlyphs" textLength="17.4" x="136.65" y="76.1265">type : String</text><line style="stroke: #A80036; stroke-width: 0.44999999999999996;" x1="130.95" x2="182.55" y1="78.0516" y2="78.0516"/><ellipse cx="133.95" cy="81.3516" fill="#84BE84" rx="0.9" ry="0.9" style="stroke: #038048; stroke-width: 0.3;"/><text fill="#000000" font-family="sans-serif" font-size="3.3" lengthAdjust="spacingAndGlyphs" textLength="29.1" x="136.65" y="82.6772">TableViewService()</text><ellipse cx="133.95" cy="85.5023" fill="#84BE84" rx="0.9" ry="0.9" style="stroke: #038048; stroke-width: 0.3;"/><text fill="#000000" font-family="sans-serif" font-size="3.3" lengthAdjust="spacingAndGlyphs" textLength="20.1" x="136.65" y="86.828">addAttribute()</text><ellipse cx="133.95" cy="89.6531" fill="#84BE84" rx="0.9" ry="0.9" style="stroke: #038048; stroke-width: 0.3;"/><text fill="#000000" font-family="sans-serif" font-size="3.3" lengthAdjust="spacingAndGlyphs" textLength="23.4" x="136.65" y="90.9788">deleteAttribute()</text><ellipse cx="133.95" cy="93.8039" fill="#84BE84" rx="0.9" ry="0.9" style="stroke: #038048; stroke-width: 0.3;"/><text fill="#000000" font-family="sans-serif" font-size="3.3" lengthAdjust="spacingAndGlyphs" textLength="31.8" x="136.65" y="95.1296">getCurrentAttributes()</text><ellipse cx="133.95" cy="97.9547" fill="#84BE84" rx="0.9" ry="0.9" style="stroke: #038048; stroke-width: 0.3;"/><text fill="#000000" font-family="sans-serif" font-size="3.3" lengthAdjust="spacingAndGlyphs" textLength="23.1" x="136.65" y="99.2804">getThumbnails()</text><ellipse cx="133.95" cy="102.1055" fill="#84BE84" rx="0.9" ry="0.9" style="stroke: #038048; stroke-width: 0.3;"/><text fill="#000000" font-family="sans-serif" font-size="3.3" lengthAdjust="spacingAndGlyphs" textLength="14.1" x="136.65" y="103.4312">getType()</text><!--MD5=[3837a816f711443678cf1f4a9a3fbb7d]
class edu.kit.scc.dem.tuhl.mainpage.search.ISearchIndexService--><rect fill="#FEFECE" filter="url(#fydb88bhj2zar)" height="14.4" id="edu.kit.scc.dem.tuhl.mainpage.search.ISearchIndexService" style="stroke: #A80036; stroke-width: 0.44999999999999996;" width="42.9" x="251.55" y="216.9"/><ellipse cx="256.05" cy="221.7" fill="#ADD1B2" rx="3.3" ry="3.3" style="stroke: #A80036; stroke-width: 0.3;"/><path d="M256.65,220.65 Q256.7109,220.5 256.7813,220.425 Q256.8516,220.35 256.9313,220.35 Q257.0719,220.35 257.1609,220.4344 Q257.25,220.5187 257.25,220.7156 L257.25,221.1844 Q257.25,221.3813 257.1656,221.4656 Q257.0813,221.55 256.95,221.55 Q256.8328,221.55 256.7578,221.4984 Q256.6828,221.4469 256.65,221.3109 Q256.6359,221.2172 256.5844,221.1656 Q256.4906,221.0672 256.3219,221.0109 Q256.1531,220.95 255.9844,220.95 Q255.7734,220.95 255.5953,221.0344 Q255.4219,221.1188 255.2859,221.3063 Q255.15,221.4938 255.15,221.7516 L255.15,222.0281 Q255.15,222.3375 255.4031,222.5438 Q255.6563,222.75 256.1063,222.75 Q256.3734,222.75 256.5609,222.6891 Q256.6688,222.6563 256.7906,222.5484 Q256.8703,222.4875 256.9125,222.4688 Q256.9547,222.45 257.0062,222.45 Q257.1047,222.45 257.175,222.5297 Q257.25,222.6047 257.25,222.7125 Q257.25,222.8156 257.1469,222.9375 Q256.9969,223.1156 256.7578,223.2141 Q256.4437,223.35 256.0594,223.35 Q255.6094,223.35 255.2484,223.1719 Q254.9578,223.0313 254.7516,222.7266 Q254.55,222.4219 254.55,222.0609 L254.55,221.7328 Q254.55,221.3578 254.7281,221.0297 Q254.9109,220.7016 255.225,220.5281 Q255.5438,220.35 255.9,220.35 Q256.1156,220.35 256.3031,220.425 Q256.4906,220.5 256.65,220.65 Z "/><text fill="#000000" font-family="sans-serif" font-size="3.6" lengthAdjust="spacingAndGlyphs" textLength="33.3" x="260.25" y="223.173">ISearchIndexService</text><line style="stroke: #A80036; stroke-width: 0.44999999999999996;" x1="251.85" x2="294.15" y1="226.5" y2="226.5"/><line style="stroke: #A80036; stroke-width: 0.44999999999999996;" x1="251.85" x2="294.15" y1="228.9" y2="228.9"/><!--MD5=[3a5b1af2a808efce0be9e6b86606befc]
class edu.kit.scc.dem.tuhl.mainpage.search.ISearchService--><rect fill="#FEFECE" filter="url(#fydb88bhj2zar)" height="14.4" id="edu.kit.scc.dem.tuhl.mainpage.search.ISearchService" style="stroke: #A80036; stroke-width: 0.44999999999999996;" width="34.2" x="255.9" y="241.8"/><ellipse cx="260.4" cy="246.6" fill="#ADD1B2" rx="3.3" ry="3.3" style="stroke: #A80036; stroke-width: 0.3;"/><path d="M261,245.55 Q261.0609,245.4 261.1312,245.325 Q261.2016,245.25 261.2813,245.25 Q261.4219,245.25 261.5109,245.3344 Q261.6,245.4188 261.6,245.6156 L261.6,246.0844 Q261.6,246.2813 261.5156,246.3656 Q261.4313,246.45 261.3,246.45 Q261.1828,246.45 261.1078,246.3984 Q261.0328,246.3469 261,246.2109 Q260.9859,246.1172 260.9344,246.0656 Q260.8406,245.9672 260.6719,245.9109 Q260.5031,245.85 260.3344,245.85 Q260.1234,245.85 259.9453,245.9344 Q259.7719,246.0187 259.6359,246.2062 Q259.5,246.3937 259.5,246.6516 L259.5,246.9281 Q259.5,247.2375 259.7531,247.4438 Q260.0062,247.65 260.4563,247.65 Q260.7234,247.65 260.9109,247.5891 Q261.0188,247.5562 261.1406,247.4484 Q261.2203,247.3875 261.2625,247.3687 Q261.3047,247.35 261.3563,247.35 Q261.4547,247.35 261.525,247.4297 Q261.6,247.5047 261.6,247.6125 Q261.6,247.7156 261.4969,247.8375 Q261.3469,248.0156 261.1078,248.1141 Q260.7938,248.25 260.4094,248.25 Q259.9594,248.25 259.5984,248.0719 Q259.3078,247.9312 259.1016,247.6266 Q258.9,247.3219 258.9,246.9609 L258.9,246.6328 Q258.9,246.2578 259.0781,245.9297 Q259.2609,245.6016 259.575,245.4281 Q259.8938,245.25 260.25,245.25 Q260.4656,245.25 260.6531,245.325 Q260.8406,245.4 261,245.55 Z "/><text fill="#000000" font-family="sans-serif" font-size="3.6" lengthAdjust="spacingAndGlyphs" textLength="24.6" x="264.6" y="248.073">ISearchService</text><line style="stroke: #A80036; stroke-width: 0.44999999999999996;" x1="256.2" x2="289.8" y1="251.4" y2="251.4"/><line style="stroke: #A80036; stroke-width: 0.44999999999999996;" x1="256.2" x2="289.8" y1="253.8" y2="253.8"/><!--MD5=[ff13815c9f38b774c543996d8c0ce8dd]
reverse link edu.kit.scc.dem.tuhl.mainpage.dashboard.DashboardController to edu.kit.scc.dem.tuhl.mainpage.dashboard.IDashboardService--><path d="M80.5413,129.2931 C96.4842,132.2559 116.8089,136.0332 132.4143,138.9333 " fill="none" id="edu.kit.scc.dem.tuhl.mainpage.dashboard.DashboardController&lt;-edu.kit.scc.dem.tuhl.mainpage.dashboard.IDashboardService" style="stroke: #A80036; stroke-width: 0.3;"/><polygon fill="#FFFFFF" points="76.6923,128.5776,78.2427,130.0863,80.2317,129.2355,78.6813,127.7267,76.6923,128.5776" style="stroke: #A80036; stroke-width: 0.3;"/><text fill="#000000" font-family="sans-serif" font-size="3.9" lengthAdjust="spacingAndGlyphs" textLength="30.6" x="90.75" y="130.0485">dashboardService</text><!--MD5=[c9c386d363ba5dd06f900c24564be04e]
link edu.kit.scc.dem.tuhl.mainpage.dashboard.DashboardService to edu.kit.scc.dem.tuhl.mainpage.dashboard.IDashboardService--><path d="M81.4704,157.113 C95.2968,154.5843 112.2219,151.4889 126.4902,148.8795 " fill="none" id="edu.kit.scc.dem.tuhl.mainpage.dashboard.DashboardService-&gt;edu.kit.scc.dem.tuhl.mainpage.dashboard.IDashboardService" style="stroke: #A80036; stroke-width: 0.3; stroke-dasharray: 7.0,7.0;"/><polygon fill="none" points="126.1461,146.8074,132.426,147.7938,126.9018,150.939,126.1461,146.8074" style="stroke: #A80036; stroke-width: 0.3;"/><!--MD5=[239873e753fb8b6e816f9d92ceb7411c]
reverse link edu.kit.scc.dem.tuhl.mainpage.dashboard.contentview.TableViewController to edu.kit.scc.dem.tuhl.mainpage.dashboard.contentview.TableViewService--><path d="M79.8723,81.6 C95.3034,81.6 115.0254,81.6 130.5903,81.6 " fill="none" id="edu.kit.scc.dem.tuhl.mainpage.dashboard.contentview.TableViewController&lt;-edu.kit.scc.dem.tuhl.mainpage.dashboard.contentview.TableViewService" style="stroke: #A80036; stroke-width: 0.3;"/><polygon fill="#FFFFFF" points="75.9459,81.6,77.7459,82.8,79.5459,81.6,77.7459,80.4,75.9459,81.6" style="stroke: #A80036; stroke-width: 0.3;"/><text fill="#000000" font-family="sans-serif" font-size="3.9" lengthAdjust="spacingAndGlyphs" textLength="29.4" x="91.35" y="80.5485">tableViewService</text><!--MD5=[515e9fee809cb8d2a2a104cb2ab2a385]
link edu.kit.scc.dem.tuhl.mainpage.dashboard.contentview.TableViewService to edu.kit.scc.dem.tuhl.mainpage.dashboard.contentview.IContentViewService--><path d="M182.8602,81.6 C201.3219,81.6 226.1412,81.6 245.0148,81.6 " fill="none" id="edu.kit.scc.dem.tuhl.mainpage.dashboard.contentview.TableViewService-&gt;edu.kit.scc.dem.tuhl.mainpage.dashboard.contentview.IContentViewService" style="stroke: #A80036; stroke-width: 0.3; stroke-dasharray: 7.0,7.0;"/><polygon fill="none" points="245.0436,79.5,251.0436,81.6,245.0436,83.7,245.0436,79.5" style="stroke: #A80036; stroke-width: 0.3;"/><!--MD5=[4eb826ca9fcfa66359c8e9d5a2c7784c]
reverse link edu.kit.scc.dem.tuhl.mainpage.dashboard.contentview.TableViewService to edu.kit.scc.dem.tuhl.mainpage.search.ISearchIndexService--><path d="M184.3581,108.5322 C219.6027,148.7484 254.8665,198.4083 267.6732,216.8118 " fill="none" id="edu.kit.scc.dem.tuhl.mainpage.dashboard.contentview.TableViewService&lt;-edu.kit.scc.dem.tuhl.mainpage.search.ISearchIndexService" style="stroke: #A80036; stroke-width: 0.3;"/><polygon fill="#FFFFFF" points="181.7124,105.5313,182.0026,107.6751,184.0931,108.2317,183.8029,106.0879,181.7124,105.5313" style="stroke: #A80036; stroke-width: 0.3;"/><text fill="#000000" font-family="sans-serif" font-size="3.9" lengthAdjust="spacingAndGlyphs" textLength="33.6" x="192.15" y="117.7485">searchIndexService</text><!--MD5=[e770c0206fe6c46509216ae25945cbb6]
reverse link edu.kit.scc.dem.tuhl.mainpage.dashboard.contentview.TableViewService to edu.kit.scc.dem.tuhl.mainpage.search.ISearchService--><path d="M183.8799,109.0944 C193.7151,131.0016 184.2561,141.1755 191.85,164.7 C202.8777,198.8613 200.6691,213.9663 228.45,236.7 C236.1636,243.0121 246.8943,246.0926 255.8568,247.5924 " fill="none" id="edu.kit.scc.dem.tuhl.mainpage.dashboard.contentview.TableViewService&lt;-edu.kit.scc.dem.tuhl.mainpage.search.ISearchService" style="stroke: #A80036; stroke-width: 0.3;"/><polygon fill="#FFFFFF" points="182.1303,105.474,181.8332,107.6168,183.6969,108.7152,183.994,106.5724,182.1303,105.474" style="stroke: #A80036; stroke-width: 0.3;"/><text fill="#000000" font-family="sans-serif" font-size="3.9" lengthAdjust="spacingAndGlyphs" textLength="24.3" x="196.8" y="163.6485">searchService</text><!--MD5=[abfb1f0ab3338af72662eb0e2b2b47ab]
@startuml
left to right direction
  namespace edu.kit.scc.dem.tuhl {
    namespace mainpage {
      namespace dashboard {
        class edu.kit.scc.dem.tuhl.mainpage.dashboard.DashboardController {
            + showDashboard()
        }

        class edu.kit.scc.dem.tuhl.mainpage.dashboard.DashboardService {
            - availableContentViews : String[]
            - currentContentView : String
            + getAvailableContentViews()
            + getCurrentContentView()
            + setCurrentContentView()
        }

        interface edu.kit.scc.dem.tuhl.mainpage.dashboard.IDashboardService {
            {abstract} + getAvailableContentViews()
            {abstract} + getCurrentContentView()
            {abstract} + setCurrentContentView()
        }

        namespace contentview {
                  interface edu.kit.scc.dem.tuhl.mainpage.dashboard.contentview.IContentViewService {
                      {abstract} + getType()
                  }

                  class edu.kit.scc.dem.tuhl.mainpage.dashboard.contentview.TableViewController {
                      + addAttribute()
                      + deleteAttribute()
                      + nextPage()
                      + showContentView()
                      + showThumbnails()
                  }

                  class edu.kit.scc.dem.tuhl.mainpage.dashboard.contentview.TableViewService {
                      - currentAttributes : List<String>
                      - type : String
                      + TableViewService()
                      + addAttribute()
                      + deleteAttribute()
                      + getCurrentAttributes()
                      + getThumbnails()
                      + getType()
                  }
                }
      }
    }
  }


  edu.kit.scc.dem.tuhl.mainpage.dashboard.DashboardController o- - edu.kit.scc.dem.tuhl.mainpage.dashboard.IDashboardService : dashboardService
  edu.kit.scc.dem.tuhl.mainpage.dashboard.DashboardService ..|> edu.kit.scc.dem.tuhl.mainpage.dashboard.IDashboardService

  edu.kit.scc.dem.tuhl.mainpage.dashboard.contentview.TableViewController o- - edu.kit.scc.dem.tuhl.mainpage.dashboard.contentview.TableViewService : tableViewService
    edu.kit.scc.dem.tuhl.mainpage.dashboard.contentview.TableViewService ..|> edu.kit.scc.dem.tuhl.mainpage.dashboard.contentview.IContentViewService
    edu.kit.scc.dem.tuhl.mainpage.dashboard.contentview.TableViewService o- - edu.kit.scc.dem.tuhl.mainpage.search.ISearchIndexService : searchIndexService
    edu.kit.scc.dem.tuhl.mainpage.dashboard.contentview.TableViewService o- - edu.kit.scc.dem.tuhl.mainpage.search.ISearchService : searchService

@enduml

PlantUML version 1.2020.09(Sun May 10 12:51:06 CEST 2020)
(GPL source distribution)
Java Runtime: OpenJDK Runtime Environment
JVM: OpenJDK 64-Bit Server VM
Java Version: 11.0.7+10-b765.53
Operating System: Windows 10
Default Encoding: Cp1252
Language: en
Country: GB
--></g></svg>